PathFileType	4	(X/Y/Z)	C:/Users/opensim2020/Desktop/walking_exp_matlab/subject02_walking08_straight_01.trc	
DataRate	CameraRate	NumFrames	NumMarkers	Units	OrigDataRate	OrigDataStartFrame	OrigNumFrames	
100.00	100.00	5	41	mm	100.00	721	324	
Frame#	Time	LFHD			RFHD			LBHD			RBHD			C7			T10			CLAV			STRN			RBAK			LSHO			LUPA			LELB			LFRM			LWRA			LWRB			LFIN			RSHO			RUPA			RELB			RFRM			RWRA			RWRB			RFIN			LASI			RASI			LPSI			RPSI			LTHI			LKNE			LTIB			LANK			LHEE			LTOE			RTHI			RKNE			RTIB			RANK			RHEE			RTOE			*39			*40			
		X1	Y1	Z1	X2	Y2	Z2	X3	Y3	Z3	X4	Y4	Z4	X5	Y5	Z5	X6	Y6	Z6	X7	Y7	Z7	X8	Y8	Z8	X9	Y9	Z9	X10	Y10	Z10	X11	Y11	Z11	X12	Y12	Z12	X13	Y13	Z13	X14	Y14	Z14	X15	Y15	Z15	X16	Y16	Z16	X17	Y17	Z17	X18	Y18	Z18	X19	Y19	Z19	X20	Y20	Z20	X21	Y21	Z21	X22	Y22	Z22	X23	Y23	Z23	X24	Y24	Z24	X25	Y25	Z25	X26	Y26	Z26	X27	Y27	Z27	X28	Y28	Z28	X29	Y29	Z29	X30	Y30	Z30	X31	Y31	Z31	X32	Y32	Z32	X33	Y33	Z33	X34	Y34	Z34	X35	Y35	Z35	X36	Y36	Z36	X37	Y37	Z37	X38	Y38	Z38	X39	Y39	Z39	X40	Y40	Z40	X41	Y41	Z41	

163	1.620	-1021.40643	-88.40577	1754.21863	-882.16010	-103.40105	1717.52112	-1054.24414	-214.04390	1677.34631	-918.01941	-240.78818	1639.36926	-990.57428	-273.16751	1529.37341	-977.74683	-321.25598	1251.81360	-1013.71625	-135.26047	1462.03748	-1012.17822	-79.88213	1291.11218	-922.51569	-322.56506	1353.95728	-1177.37244	-213.17751	1507.27209	-1258.23083	-224.19757	1304.87244	-1268.43726	-223.33746	1162.48804	-1277.52625	-199.23022	1031.82764	-1242.50403	-127.32508	915.83655	-1275.51941	-173.73010	911.20154	-1275.49597	-147.79865	849.24799	-812.74323	-178.16763	1491.54077	-724.37103	-194.21027	1301.69348	-704.51605	-174.09740	1157.33374	-684.44775	-135.69623	1043.70251	-701.15057	-77.04833	921.96521	-668.77124	-123.24517	914.71204	-664.13458	-79.90454	857.02448	-1135.53479	-101.39326	991.71826	-880.16516	-64.44550	987.10059	-1023.43909	-298.16403	1032.14612	-908.56171	-287.39102	1035.33459	-1201.36401	-138.07483	683.96143	-1191.54749	-134.95493	494.87897	-1165.80762	-266.20197	364.28497	-1121.13208	-366.67850	168.22444	-1059.77429	-393.86520	157.53586	-1161.62720	-262.67709	59.93383	-812.30701	-122.25562	676.45343	-861.52197	-123.39156	467.00668	-858.47247	-161.49603	281.30573	-902.22601	-182.09404	90.01061	-956.46960	-221.15065	37.11242	-903.66107	-28.05865	37.48687	-935.71259	-202.23837	1804.27625	-3357.38647	2845.82690	1034.25977 
164	1.630	-1021.01263	-80.78321	1754.52026	-881.61523	-95.40902	1718.15454	-1053.41443	-206.49866	1677.78967	-917.25714	-232.98116	1640.08826	-989.29852	-265.53055	1530.06995	-976.32513	-314.20105	1252.63232	-1012.97479	-127.84821	1462.47620	-1011.21729	-72.82113	1291.43481	-920.80804	-315.05240	1354.87183	-1176.08093	-206.57214	1507.55103	-1257.02295	-219.71210	1305.28027	-1267.75793	-220.45630	1163.17712	-1277.38391	-198.52402	1032.04700	-1242.83582	-128.72946	914.79224	-1275.81067	-175.22441	911.12457	-1276.58032	-150.29836	848.86090	-811.74921	-169.88083	1492.34912	-723.05762	-184.55719	1302.75342	-703.15515	-164.42494	1158.48975	-683.27075	-125.61374	1044.84277	-700.53931	-65.37318	923.74158	-667.66187	-112.05032	916.07727	-663.53558	-68.56459	858.47467	-1133.59204	-94.24026	993.53693	-878.41095	-58.49982	987.04767	-1023.12903	-291.45956	1033.06079	-908.16992	-281.32077	1035.68274	-1201.02686	-127.67725	685.61688	-1190.44812	-121.74335	496.23315	-1164.65234	-249.35675	361.77292	-1121.07751	-344.11722	162.57085	-1059.55774	-370.45944	150.19383	-1163.68701	-236.80618	58.10757	-812.27161	-118.16107	676.02643	-861.55725	-120.96423	466.81265	-858.71814	-160.45480	281.32813	-902.46442	-181.81779	90.12071	-956.82397	-220.60010	36.98663	-903.50378	-27.89627	37.48190	-935.17529	-194.32709	1804.93958	-3357.46387	2845.75537	1034.14441 
165	1.640	-1020.80756	-72.99799	1754.94458	-881.16608	-87.71564	1718.74292	-1052.80786	-198.92984	1678.22925	-916.65387	-225.50136	1640.56860	-988.22900	-257.90643	1530.72070	-974.98798	-307.29639	1253.42859	-1012.28955	-120.48361	1462.84485	-1010.27130	-65.80791	1291.68274	-919.11371	-308.57910	1356.09717	-1175.63684	-199.85938	1508.01636	-1256.20251	-215.40034	1305.72363	-1267.07654	-217.87411	1163.85034	-1277.42395	-197.84035	1032.49902	-1243.45251	-129.97215	914.03662	-1276.15613	-176.72018	911.06268	-1277.08728	-152.55737	848.45947	-811.05463	-161.62766	1493.34216	-721.78601	-175.63618	1303.80005	-701.77899	-154.94980	1159.40320	-682.32611	-115.34860	1046.02539	-700.17261	-55.01890	925.10907	-666.83124	-101.00160	917.33295	-663.13513	-56.88099	859.91724	-1131.62659	-86.99153	995.13049	-876.58215	-52.53307	986.74768	-1022.94507	-284.80466	1033.94580	-907.97046	-275.20813	1035.95068	-1200.67163	-117.41994	687.21600	-1189.20947	-108.95285	497.60315	-1163.58447	-232.63733	359.13028	-1121.34900	-320.88147	156.49048	-1059.82349	-346.64890	142.60190	-1166.51160	-210.44072	56.64743	-812.19714	-114.26169	675.72522	-861.53467	-118.80151	466.50781	-858.95532	-159.43552	281.36325	-902.78455	-181.59448	90.22334	-957.24866	-220.39679	36.87891	-903.24414	-27.85533	37.41716	-934.84479	-186.48987	1805.60950	-3360.43506	2845.30444	1033.99768 
166	1.650	-1020.58832	-65.38084	1755.05261	-880.95819	-79.52392	1719.17395	-1052.21082	-191.42296	1678.59009	-916.08264	-217.84380	1641.56030	-987.14966	-250.39830	1531.22791	-973.75360	-300.27985	1254.10474	-1011.65161	-113.12359	1463.10571	-1009.23956	-58.79110	1291.85632	-917.62372	-300.90448	1356.85803	-1174.32202	-193.21472	1507.95776	-1255.53955	-211.16399	1306.09705	-1266.58716	-215.03752	1164.39929	-1276.99036	-197.25038	1032.87988	-1244.34119	-130.86246	913.31104	-1276.59424	-178.02844	911.20374	-1278.27734	-154.69221	848.31012	-810.33020	-153.72234	1494.02075	-720.56488	-166.39915	1304.71338	-700.50720	-145.40608	1160.32666	-681.38525	-104.80930	1047.17749	-699.84009	-44.22440	926.42694	-666.22168	-89.76902	918.52106	-663.10370	-45.48384	861.20813	-1129.78687	-79.68603	996.52673	-874.88586	-46.65015	986.28021	-1022.86163	-278.21341	1034.74170	-907.76794	-269.14838	1036.22058	-1200.17407	-107.45592	688.82666	-1187.69653	-96.51865	498.60278	-1162.48511	-216.09500	356.25516	-1122.06726	-297.27771	150.12494	-1060.47021	-322.19907	134.54839	-1169.28076	-183.48308	55.24066	-812.25214	-110.64384	675.30316	-861.68604	-116.02887	466.20676	-859.42218	-158.32529	281.36133	-903.07910	-181.25294	90.28090	-957.52771	-220.93867	37.35290	-903.06128	-27.74245	37.40199	-934.41974	-178.41948	1805.82764	-3357.28125	2845.80664	1034.14587 
167	1.660	-1020.66553	-57.57691	1755.29370	-880.96436	-71.85715	1719.28894	-1051.83203	-183.89445	1678.90918	-915.43982	-209.89635	1641.86194	-986.15656	-242.91309	1531.71741	-972.67279	-293.41925	1254.84204	-1011.07678	-105.78848	1463.30762	-1008.27264	-51.79964	1291.98035	-916.16034	-293.69885	1357.73755	-1173.48462	-186.57155	1507.95447	-1254.75720	-207.03079	1306.35474	-1265.74597	-212.11304	1164.58301	-1276.80127	-196.47617	1033.02856	-1245.13123	-131.72302	912.41473	-1276.96643	-179.19327	911.24225	-1279.62305	-156.72823	848.20117	-809.60065	-145.25076	1494.79016	-719.32617	-157.09410	1305.46643	-699.29834	-135.73172	1161.13940	-680.62573	-94.69055	1048.25208	-700.04407	-33.75812	927.83331	-665.54254	-78.89323	919.56012	-663.02271	-34.10260	862.52026	-1128.08630	-72.34733	997.66693	-873.20245	-40.80138	985.60602	-1022.77185	-271.74448	1035.53174	-907.77502	-263.04233	1036.37341	-1199.70850	-97.65153	690.36102	-1186.42993	-84.48980	499.95551	-1161.47229	-199.67151	353.25879	-1123.08923	-273.29477	143.60886	-1061.73730	-297.63556	126.29859	-1172.17065	-156.19365	54.06572	-812.38892	-106.79540	674.97797	-861.78784	-113.65710	465.79758	-859.68988	-156.91995	281.35739	-903.35870	-180.94359	90.37034	-957.79590	-220.85251	37.53370	-902.90417	-27.62788	37.42198	-934.26910	-170.40814	1806.50671	-3360.40308	2845.19800	1034.06750 
